<?xml version="1.0" encoding="UTF-8"?>
<!-- Generator: visioncortex VTracer 0.6.12 -->
<svg width="209" height="418" version="1.1" viewBox="0 0 209 418" xmlns="http://www.w3.org/2000/svg">
 <defs>
  <filter id="dshOutline" x="-25%" y="-25%" width="150%" height="150%">
   <feMorphology in="SourceAlpha" operator="dilate" radius="2" result="spread"/>
   <feGaussianBlur in="spread" result="soft" stdDeviation="1.2"/>
   <feFlood flood-color="#1a1206" flood-opacity=".42" result="ink"/>
   <feComposite in="ink" in2="soft" operator="in" result="edge"/>
   <feMerge>
    <feMergeNode in="edge"/>
    <feMergeNode in="SourceGraphic"/>
   </feMerge>
  </filter>
 </defs>
 <g filter="url(#dshOutline)">
  <path transform="translate(106,7)" d="m0 0c2.9 0.6 5.8 1 8.8 1.2 0.7 0.3 1.4 0.5 2.2 0.8 0.2 0.4 0.2 0.4 0.9 2.4 1.1 2.6 1.1 2.6 4.2 4.4 1 0.4 1.9 0.8 2.9 1.2v4c0.6 0.1 1.2 0.1 1.8 0.2 2.2 0.8 2.2 0.8 3.7 3.3 0.4 1 0.8 2 1.3 3.1l1.2 3c0.2 0.4 0.2 0.4 1 2.4h2c0.1 1.1 0.2 2.1 0.3 3.2 0.7 3.7 1.7 5.7 3.7 8.8v2c0.7 0.3 1.3 0.7 2 1 1.4 2.9 2 4.8 2 8h2c1.6 2.9 2.5 5.5 3.1 8.8 0.2 0.7 0.4 1.5 0.5 2.4 0.2 0.6 0.3 1.2 0.4 1.8 1-0.7 2-1.3 3-2v4l2.4 0.6c2.6 1.4 2.6 1.4 3.9 5 0.2 1.1 0.5 2.3 0.7 3.4h2c0.4 1.1 0.9 2.3 1.3 3.4 0.6 1.2 1.1 2.4 1.7 3.6 1 0.3 2 0.7 3 1 0.5 1.9 1.1 3.8 1.5 5.7 0.8 3.6 2.1 6.9 3.5 10.3 0.7 0.3 1.3 0.7 2 1 2.6 5.6 3.6 11.6 4.5 17.6 0.5 2.4 0.5 2.4 2.5 5.4v2h2c0.1 0.9 0.2 1.8 0.4 2.8 1.9 14.1 1.9 14.1 3.6 19.2 1 0.3 2 0.7 3 1v6c1 0.3 2 0.7 3 1 0.3 1.9 0.7 3.8 1 5.7 0.2 1 0.4 2.1 0.6 3.2 0.4 2.7 0.5 5.3 0.4 8.1 1.3-0.3 2.6-0.7 4-1 2.5 14.1 3.3 28 3.3 42.2v2.5 6.9 2.2c0 3.6-0.2 5.1-2.3 8.2-0.4 2.5-0.4 2.5-0.6 5.2l-0.3 2.7c0 0.4 0 0.4-0.1 2.1h-3c-0.1 1.2-0.1 2.4-0.2 3.7-0.5 4.6-2.5 6.1-5.8 9.3-0.6 2-0.6 2-1.1 4.2-0.9 3.8-0.9 3.8-3 5.3-0.6 0.2-1.3 0.3-1.9 0.5v2h-5c-0.3 0.6-0.6 1.1-0.9 1.7-1.7 3.5-3.4 6.9-5.1 10.3h-2c0 0.6 0 1.1-0.1 1.7-0.4 10.9-1 21.8-2.1 32.6-0.6 5.6-1 11.2-1.2 16.8-0.1 0.7-0.1 1.4-0.1 2.2-0.3 5.8-0.3 5.8-0.5 8.6-0.4 10.5-2.1 20-5 30.1h-1c-0.7-5.3-1.3-10.6-2-16-0.3 2.3-0.7 4.6-1 7-1 1-1 1-3.5 1.1h-3.1c-1 0-2-0.1-3-0.1h-2.4c-0.3-0.9-0.5-1.9-0.8-2.8-1.1-3-1.7-4.4-4.2-6.2h-3c-0.3-2.6-0.7-5.3-1-8h-2c0.3-2 0.7-4 1-6-2-0.7-4-1.3-6-2v-2c-0.7-0.3-1.3-0.7-2-1-0.3-2.3-0.7-4.7-1-7l-2-2v-3c-1.3-0.3-2.6-0.7-4-1l-1.5-7.2c-0.1-0.4-0.1-0.4-0.4-2.1-0.7-3.3-1.1-6.3-1.1-9.7l1-1c-1-0.3-2-0.7-3-1-2.2-2.8-2-4.1-1.6-7.8 0.2-1 0.4-2.1 0.6-3.2-2.1 0.1-4.3 0.2-6.4 0.4-1.2 0-2.3 0.1-3.6 0.2-3 0.4-3 0.4-5 2.4-10.6 1.3-21.3-1.3-31-5.2-2.4-0.9-4.7-1.6-7.1-2.3-3.1-0.9-5.5-1.8-8.3-3.3-2.6-1.2-2.6-1.2-5.6-0.2 0-0.6 0.1-1.2 0.1-1.8 0.2-5 0-8-3.1-12.2v-2l-1.8 0.6c-2.2 0.4-2.2 0.4-4.3-0.1-2.9-2.3-3.1-5-3.9-8.5h-3c1.8 4.9 1.8 4.9 4 6v3c1.3 0.3 2.6 0.7 4 1v2c2 0.3 4 0.7 6 1 0 0.6 0 0.6-0.1 3.7-0.2 9 0 17.1 2.5 25.8 0.6 2.5 0.6 2.5-0.4 5.5-2.5-6.6-3.8-13-4.7-19.9-0.1-1-0.2-1.9-0.4-2.9-0.9-6.8-0.9-6.8-0.9-9.2h-2c-2.1-1.9-2.1-1.9-4-4v-2h-2c-1.7-1.9-1.7-1.9-3.6-4.4-0.7-0.8-1.3-1.6-1.9-2.4-1.5-2.2-1.5-2.2-1.5-4.2-1-0.3-2-0.7-3-1-0.9-1.9-0.9-1.9-1.6-4.3-0.9-3.1-1.9-5.8-3.4-8.7-0.6-2.8-1-5.5-1.2-8.3-0.1-0.8-0.2-1.6-0.2-2.5-0.1-0.7-0.2-1.5-0.2-2.2-0.4-2-0.4-2-2.4-4-0.2-2.5-0.2-2.5-0.1-5.4v-3c0-0.4 0-0.4 0.1-2.6v-3c1.2-1.7 1.2-1.7 3-3 2.7 0.3 2.7 0.3 5 1-0.7-1-1.3-2-2-3 0.4-2.7 0.4-2.7 1-5h2c-0.2 0.7-0.2 0.7-1 4 0.8-0.3 0.8-0.3 5-2 0.1 0.8 0.1 1.6 0.2 2.4 0.3 0.8 0.5 1.7 0.8 2.6 2.6 1.3 2.6 1.3 5 2 0 0.8 0 1.6-0.1 2.4 0.1 2.6 0.1 2.6 1.1 3.6 5 0.2 10 0.1 15 0 0.5 0 0.5 0 3.3-0.1 7-0.3 7-0.3 10.6-3.4 0.7-0.8 1.4-1.7 2.1-2.5 2.5-0.8 4.4-1 7-1v-2c0.5 0.2 1.1 0.3 1.7 0.5 3.5 0.8 6.9 0.5 10.5 0.4 2.8 0.1 5.2 0.5 7.8 1.1v-2c2.6-1 5.3-2 8-3v3c0.4-0.3 0.4-0.3 2.3-1.6 0.9-0.4 1.8-0.9 2.7-1.4 1 0.3 2 0.7 3 1 5.9-0.6 9.4-2.3 14-6 2.8 0.2 2.8 0.2 5 1v-2c2-1.4 4-2.7 6-4-5.7 0.5-10.7 2.2-16 4.2-3.2 0.8-5.8 0.9-9 0.8v-2c-0.4 0.5-0.8 0.9-1.1 1.4-6.3 5.3-21 4.5-28.9 4.6-2.9-0.5-2.9-0.5-5-1v2h-3c-0.3 1-0.7 2-1 3h-3c-0.1-0.3-0.1-0.3-0.3-1.9-0.2-0.7-0.5-1.4-0.7-2.1-1-0.3-2-0.7-3-1-0.7 2.3-1.3 4.6-2 7-7 1.2-14 1.5-21 2 0.3-0.7 0.7-1.3 1-2 2.3-0.7 4.6-1.4 7-2v-6c-1-0.3-2-0.7-3-1v-3c0.7-0.3 1.3-0.7 2-1 0.3-1 0.7-2 1-3-1.3-0.7-2.6-1.3-4-2v-2c2-0.3 4-0.7 6-1 0.1-0.6 0.3-1.2 0.4-1.9 0.2-0.8 0.4-1.6 0.5-2.4l0.6-2.4c0.5-2.3 0.5-2.3 1.5-5.3-2.6-0.3-5.3-0.7-8-1v-2h-2c-0.3 1.3-0.7 2.6-1 4-0.1-2.4-0.1-2.4 0-5l2-2c7 0.3 13.3 2.1 20 4 3.3 0.9 3.3 0.9 6 1 3.1-1.7 3.1-1.7 6-4 2.5-1.5 5.1-3 7.6-4.5 2.4-1.5 2.4-1.5 3.8-3.1 2.3-2 4.7-2.5 7.6-3.4 1.7-1 3.3-2 5-3 0.6-0.1 1.3-0.2 1.9-0.3 2.8-0.9 3.9-2.4 5.8-4.6 0.3-0.3 0.3-0.3 1.8-2.1 1.5-2 1.5-2 2.5-5h-2c-3-5.8-3-5.8-3-8-1-0.3-2-0.7-3-1v-3c-1.7-0.3-3.3-0.7-5-1-0.3-1-0.7-2-1-3-0.7-0.1-1.5-0.1-2.2-0.2-3.7-1.1-4.8-2.7-6.8-5.8v-2c-0.5 0.2-0.5 0.2-3 1l-2-2v-3c-8.6-2.8-17.9-4.4-27-4-0.3 0.7-0.7 1.3-1 2-1.3 0.3-2.7 0.7-4 1-1.7 1-3.4 2-5 3-0.9-3.7-1.3-5.4 0.4-8.9 0.6-0.7 1.1-1.4 1.6-2.1 0.7 1.3 1.3 2.6 2 4h2c2.8-7.2 4.1-14.5 5.4-22.1 0.3-2.2 0.7-4.3 1.2-6.5 1.7-9.4 0.8-17.9-3.6-26.4h2c2 2.9 3 4.4 3 8h2c1 3.6 2 7.3 3 11 0-1.3 0-2.6-0.1-3.9 0-3.9 0-3.9 1.1-6.1-1-0.3-2-0.7-3-1-0.5-1.9-1.1-3.8-1.5-5.7-0.9-3.8-2.2-7.5-3.5-11.3 0.7-0.3 1.5-0.5 2.2-0.8 2.7-1.1 4.6-2.4 6.8-4.2-0.3-1-0.7-2-1-3 0.2-0.3 0.2-0.3 1-2-1-0.3-2-0.7-3-1-0.2 0.3-0.2 0.3-1 2-1-1.3-2-2.6-3-4h2c0.3-1.3 0.7-2.6 1-4 0.5 0 0.5 0 3.3 0.1 1.5 0 2.9 0.1 4.4 0.1 0.3 0 0.3 0 2.2 0.1 4.7 0 7.3-0.7 11.1-3.3h3c0.3-2.6 0.7-5.3 1-8h2v-3h-2c-0.1-1.1-0.1-2.1-0.2-3.2-0.8-3.8-0.8-3.8-2.8-6.1-3.9-2.2-7.6-3-12-3.7 0.7-2 0.7-2 2-4 1.9-0.6 1.9-0.6 4.2-0.7 0.9 0 1.8-0.1 2.7-0.1 1-0.1 2-0.1 3.1-0.2 1.3-0.1 2.5-0.2 3.9-0.3 1.3-0.2 2.6-0.3 4-0.4 1.2-0.1 2.5-0.2 3.8-0.3 3.3 0 4.6 0.3 7.3 2z" fill="#E1AB41"/>
  <path transform="translate(70,120)" d="m0 0c0.9 0.1 1.8 0.2 2.8 0.3 2.5 0.4 4.8 0.8 7.2 1.7 1.5 2.6 1.5 2.6 2 5 0.3 0.2 0.3 0.2 2 1v2c1 0.3 2 0.7 3 1v2h2v3c1.2 0 2.5 0.1 3.8 0.1 2.2 0.3 2.2 0.3 4.2 0.9 2.3 3 2.3 3 4 6 0.5 0.2 0.5 0.2 3 1 1.4 2.5 1.4 2.5 2.7 5.6 0.4 1 0.9 2 1.3 3 0.3 0.8 0.7 1.6 1 2.4-3.9 4.6-6.2 5.3-12 6-6.4 2.8-6.4 2.8-8 6-2.6 0.6-2.6 0.6-5 1v2c-1.6 1.7-1.6 1.7-3.8 3.6-0.7 0.6-1.4 1.2-2.2 1.8-2 1.6-2 1.6-5 2.6-1.2 2.6-1.2 2.6-2 5-5.7-0.8-11.1-2.5-16.6-4.2-3.3-0.8-6-1-9.4-0.8-1 1-1 1-1.4 3.2 0.6 3.9 2.5 5.3 5.4 7.8h-2c-0.2 0.5-0.2 0.5-1 3-2.8 0.9-2.8 0.9-6.4 1.7-1.1 0.2-2.3 0.5-3.5 0.7-3.1 0.6-3.1 0.6-6.1 0.6l-2-2-2 2c-0.2-0.3-0.2-0.3-1-2l-2 2h-3c-0.3-0.7-0.7-1.3-1-2-1-0.7-2-1.3-3-2v-2c0.3-0.2 0.3-0.2 2-1 0.3-0.8 0.6-1.7 0.9-2.5 1.1-2.5 1.1-2.5 3.2-3.3 0.6-0.1 1.3-0.1 1.9-0.2-0.2-0.6-0.4-1.1-0.6-1.7-0.5-3 0.3-4.6 1.6-7.3h-2v4h-2v-2h-3c1.6-5.4 3.2-10.7 5-16-6.6 2.2-6.6 2.2-8.6 6.1-0.4 1-0.9 1.9-1.4 2.9-3.1 0.8-3.1 0.8-6 1l-2 2c0.6-4 2.6-6.8 5-10h2c0.2-0.6 0.5-1.2 0.8-1.9 1.4-2.5 2.6-3.1 5.2-4.1v-2c0.9-0.4 1.9-0.8 2.9-1.2 3.4-2 3.6-2.5 5.1-5.8 1.5-2.1 3.1-4.1 4.7-6.1 1.3-1.9 1.3-1.9 2.3-4.9h2c0.2-0.7 0.5-1.4 0.7-2.2 1.5-3.3 3.4-5.4 5.9-8.1 0.8-0.9 1.7-1.8 2.5-2.7 0.6-0.7 1.3-1.3 1.9-2 0.7 1.3 1.3 2.6 2 4 3.6 0 4.2-0.9 7-3 4.9-2.9 9.6-1.8 15-1z" fill="#E1C081"/>
  <path transform="translate(52,286)" d="m0 0c0.2 0.1 0.2 0.1 1.5 0.7 5.9 2.8 11.9 4.7 18.2 6.4 2.1 0.6 4.2 1.2 6.2 1.9 6.7 2.2 13.2 3.4 20.1 4.1 0.4 0.1 0.4 0.1 2.3 0.3l5.7 0.6c0.4 8.7-0.2 16.1-2.3 24.6-0.9 4.4-1.2 8.7-1.4 13.2-0.1 0.7-0.2 1.4-0.3 2.2-0.3 0.2-0.3 0.2-2 1v-5h-2c-0.3 4.3-0.7 8.6-1 13h-2v3c-0.7 0.3-0.7 0.3-4 2 0.1 0.5 0.1 0.5 0.6 2.9 0.4 3.1 0.4 3.1-0.6 5.1-0.3 1.7-0.7 3.3-1 5-0.2 0.5-0.2 0.5-1 3 0.7-0.2 0.7-0.2 4-1 0.1 1.1 0.2 2.2 0.2 3.4 0.3 1.2 0.5 2.4 0.8 3.6 2 1.2 2 1.2 4 2 0.3 1 0.7 2 1 3 1.7 0.3 3.3 0.7 5 1v3c-6.6 0.1-6.6 0.1-10-1-1.6-0.1-3.3-0.1-4.9-0.1h-2.8-3c-1 0-2 0-3 0.1h-7.3v2c-1.1 0-2.1 0-3.2-0.1-3.1 0.1-5.8 0.4-8.8 1.1v-2c-2-0.3-4-0.7-6-1v-2c-0.7-0.3-1.3-0.7-2-1 4.9-5.5 9.7-7.4 17-8 0.5 0.3 0.5 0.3 3 2 0-0.6 0.1-1.2 0.1-1.8 0.9-2.2 0.9-2.2 3.9-4 3-2.2 3-2.2 3.9-6 0-1 0.1-2.1 0.1-3.2l-1 1c-0.3 0.2-0.3 0.2-2 1v-2c-0.7-0.3-1.3-0.7-2-1-6.8-8.4-6.8-8.4-7.2-13.7 0.3-2.5 0.3-2.5 1.2-6.3-0.5-0.2-0.5-0.2-3-1-1.1-2.5-1.1-2.5-2.1-5.5-0.6-1.9-1.2-3.7-1.9-5.5-0.7-0.3-1.3-0.7-2-1-0.1-0.8-0.3-1.6-0.4-2.4-0.6-2.6-0.6-2.6-2.2-4-2.3-2.6-1.6-5.3-1.4-8.6h-2c0.3-2.3 0.7-4.6 1-7h-4c-1.6-5.5-2.4-10.2-2-16l2-2z" fill="#A56919"/>
  <path transform="translate(22,385)" d="m0 0h1c0.3 2.3 0.7 4.6 1 7 2.1 0.2 4.2 0.3 6.3 0.5l3.6 0.3c9.7 0.6 19.3 0.1 29-0.6 0.6-0.1 0.6-0.1 3.8-0.3 33.4-2.4 33.4-2.4 42.3-6.9-0.3 1.6-0.7 3.3-1 5 2.1 0.2 4.2 0.4 6.4 0.6 0.6 0 0.6 0 3.6 0.3 3 0.1 3 0.1 5-0.9h6c-2.3 1.5-4.3 2.7-6.7 3.9-0.7 0.3-1.4 0.7-2.2 1-1.4 0.7-2.9 1.5-4.4 2.2-0.7 0.3-1.4 0.7-2.1 1s-1.3 0.6-2 1c-1.6 0.9-1.6 0.9-3.6 2.9-0.4 2.1-0.4 2.1-0.6 4.4-0.2 2.8-0.5 4.9-1.4 7.6-0.9-0.1-1.7-0.3-2.6-0.4-11.6-1.7-23-1.8-34.6-1.6h-3.9c-1.2 0-2.3 0.1-3.5 0.1-5.2-0.1-10.2-1-15.3-2-0.7-0.1-1.5-0.3-2.3-0.4-0.6-0.2-1.2-0.5-1.8-0.7-0.2-0.5-0.2-0.5-1-3-2-0.1-3.9-0.1-5.9-0.1-1.1 0-2.2-0.1-3.3-0.1-2.8 0.2-2.8 0.2-4.8 2.2-4-0.4-7.6-2-11.3-3.5-5-2-9.3-3.2-14.7-3.5 1.3-0.3 2.6-0.7 4-1v-8c1.3-0.7 2.6-1.3 4-2v2c7.6-1.5 7.6-1.5 9.5-4.1 0.2-0.6 0.3-1.3 0.5-1.9 0.7 0.3 1.3 0.7 2 1 0.3-0.7 0.7-1.3 1-2z" fill="#E8DFCF"/>
  <path transform="translate(74,7)" d="m0 0c1 0.3 2 0.7 3 1-0.7 1-1.3 2-2 3 0.6 0 1.2 0.1 1.9 0.1 0.8 0.1 1.6 0.1 2.4 0.2s1.6 0.1 2.4 0.2c2.7 0.6 3.6 1.5 5.3 3.5 0.7-0.3 1.3-0.7 2-1 1.2 3.5 1.1 6.4 1 10h2v3h-2c0.2 0.8 0.4 1.5 0.6 2.3 0.4 2.7 0.4 2.7-1.6 5.7-7 4.7-13.7 4.7-22 4-0.7-0.3-1.3-0.7-2-1-0.9 3.7-1 5.2 0 9-2.8 0.2-2.8 0.2-17 1 0.3 1 0.7 2 1 3 0.7 0.3 1.3 0.7 2 1 0.3 0.8 0.6 1.5 0.9 2.3 1.2 3 2.7 4.6 5.1 6.7-0.3 1-0.7 2-1 3-0.2-0.5-0.2-0.5-1-3-1-0.3-2-0.7-3-1-4.5-3.8-7-8.1-8-13.9 0-3.2 1.5-5.3 3-8.1 0.1-1.7 0.1-3.5 0.1-5.2 0.5-8.2 6.4-13.3 11.9-18.8 1.8-0.7 1.8-0.7 3.8-1.4 3.3-1.2 6.2-2.7 9.2-4.6 0.7-0.3 1.3-0.7 2-1z" fill="#BAA855"/>
  <path transform="translate(126,11)" d="m0 0c9.5 9.3 15.3 23.3 21.1 35.2 5.3 10.7 11.3 21 17.6 31.3 0.5 0.9 1.1 1.8 1.7 2.8 0.5 0.8 1 1.7 1.5 2.5 1.1 2.2 1.1 2.2 1.1 5.2h2c6.6 13.9 12 27.9 16.8 42.5 1.2 3.8 2.5 7.6 3.7 11.4 0.2 0.5 0.2 0.5 0.9 2.7 2 5.9 4.2 11.5 6.9 17.1 0.8 2.6 0.6 3.8-0.3 6.3-0.7-1.6-1.3-3.2-2-4.9-0.4-0.9-0.7-1.8-1.1-2.7-0.9-2.4-0.9-2.4-0.9-4.4h-2v-4c-1-0.3-2-0.7-3-1-0.2-1-0.4-2-0.6-3.1-0.2-1.3-0.5-2.7-0.8-4-0.1-0.7-0.2-1.4-0.4-2-0.6-3.2-1.3-6.2-2.3-9.2-0.9-2.7-0.9-2.7-0.9-5.7h-2v-5h-2c-0.7-3.3-1.3-6.6-2-10h-3c-0.1-1.1-0.2-2.2-0.2-3.4-0.2-0.6-0.2-0.6-0.8-3.6-0.3-0.2-0.3-0.2-1.9-1-2.1-1-2.1-1-3.1-3-1.4-4.4-2.4-8.3-2-13-0.7-0.2-0.7-0.2-4-1-0.3-1.2-0.3-1.2-2-7h-2c-0.4-1.1-0.8-2.2-1.2-3.4-1.5-3.4-1.5-3.4-3.9-4.9-0.6-0.2-1.3-0.5-1.9-0.7-0.3-0.7-0.7-1.3-1-2h-3c-0.1-0.6-0.1-0.6-0.4-3.4l-0.6-3.6c-0.7-0.3-1.3-0.7-2-1v-5h-2c-1.8-3.1-2-4.2-2-8-0.5-0.2-0.5-0.2-3-1-1.1-2.8-1.1-2.8-2-6-0.9-2.6-1.7-4.6-3.4-6.8-2.3-3.1-3.3-6.5-4.5-10.1-0.4-0.7-0.7-1.4-1.1-2.1-0.5-0.2-0.5-0.2-3-1-0.1-0.6-0.2-1.2-0.3-1.9-0.2-0.7-0.5-1.4-0.7-2.1-1-0.5-2-0.9-3-1.4-1-0.6-2-1.1-3-1.6-0.7-2.6-0.7-2.6-1-5-0.8 0-1.7-0.1-2.5-0.1l-3.3-0.3c-1.1 0-2.2-0.1-3.3-0.2-2.9-0.4-2.9-0.4-5.9-2.4-4.6-0.1-9.2 0.3-13.8 0.7-1.3 0.1-2.6 0.1-3.9 0.2-0.6 0.1-0.6 0.1-3.7 0.3-0.6 0-0.6 0-3.4 0.2-4.5 0.8-7.9 2.8-11.8 5.2-2.4 1.4-2.4 1.4-4.8 2.1-4.2 2.1-6.7 5.7-9.6 9.3 0-4.9 3.7-7.6 7-11 18-17.3 48.9-17 68-2z" fill="#EEDC9D"/>
  <path transform="translate(162,378)" d="m0 0c0.4 0.6 0.9 1.2 1.3 1.8 2.4 3.1 4.5 5.1 7.8 7.3 2.9 1.9 2.9 1.9 3.9 3.9 0.6 3.5 0.7 6.6 0 10-2.3 2.9-5.1 4.8-8 7l-2.4 2.7c-3.8 3.4-9.4 6.3-14.6 6.3 0-1 0.1-2 0.1-3.1-0.1-4.1-0.8-7-2.1-10.9h-3v-2c-0.6 0-1.1 0-1.7 0.1-4 0.1-7.6 0-11.5-1.1-3.5-0.9-6.2-1.1-9.8-1-0.7-0.3-1.3-0.7-2-1h-7c3.2-2.6 6.6-4.3 10.4-6.1 1.1-0.5 2.2-1 3.3-1.5 3.1-1.3 6.1-2.4 9.3-3.4 0.3 0.5 0.3 0.5 2 3 2.3 0.5 2.3 0.5 5 0 2.6-2.4 2.6-2.4 5-5 1-0.3 2-0.7 3-1 0.3-1 0.7-2 1-3 6.2-2.3 6.2-2.3 10-1v-2z" fill="#9B7942"/>
  <path transform="translate(125,398)" d="m0 0c2.3 0.3 4.7 0.5 7 0.7 2 0.3 2 0.3 4 1.3 1.5 0.2 3.1 0.4 4.6 0.6 0.8 0 1.7 0.1 2.5 0.2 0.6 0.1 1.3 0.1 1.9 0.2v2h3c2.6 5.2 3.4 8.1 2 14-1.8 1.8-4.2 1.1-6.5 1.1h-2.3-2.1c-3.9 0-7.4-0.3-11.1-1.1-1.9 0-3.8 0-5.8 0.1-5.6 0.1-10-0.9-15.2-3.1-1.5-8.8-1.5-8.8 1-13 2.9-3.1 6-3.6 10.1-3.9 2.4-0.1 4.5 0.3 6.9 0.9z" fill="#554524"/>
  <path transform="translate(177,112)" d="m0 0h2c1.3 3.6 2 6.1 2 10h2v5h2c2.5 6.9 4 13.7 5.3 20.9 0.2 1 0.4 2.1 0.7 3.1 0.7 0.3 1.3 0.7 2 1v4h2c0.7 1.6 1.3 3.2 2 4.9 0.4 0.9 0.7 1.8 1.1 2.7 0.9 2.4 0.9 2.4 0.9 4.4h2c8.9 28.8 13.2 58.7 0 87l-2 2c0.1-3.1 0.2-6.2 0.4-9.2 0-0.9 0-1.8 0.1-2.7 0-0.8 0-1.7 0.1-2.6 0-0.7 0-1.5 0.1-2.3 0.3-2.2 0.3-2.2 1.3-4 1.5-3.3 1.3-6.7 1.3-10.3v-2.4-5-7.6c0-20.3 0-20.3-3.4-27-1.2-2.4-1-4.3-0.9-6.9h-2c-1.4-5.1-2.3-9.9-2.7-15.2l-0.3-1.8c-0.7-0.3-1.3-0.7-2-1-0.1-0.9-0.3-1.9-0.4-2.9-0.7-3.4-1.2-3.8-3.6-6.1-1.8-4.5-2.4-8.6-2.6-13.4-0.1-1.2-0.2-2.5-0.3-3.7 0-1 0-1.9-0.1-2.9h-2l-2-2h-1c-0.1-0.7-0.1-1.5-0.2-2.2-0.1-1-0.2-2-0.2-3-0.1-1-0.2-1.9-0.3-2.9-0.3-2.7-0.7-5.3-1.3-7.9z" fill="#E9CD8D"/>
  <path transform="translate(19,176)" d="m0 0c-0.5 3.8-1.3 6.6-3 10-0.4 2-0.7 4-1 6h3c1.1 5.8 1.1 5.8 0 8-0.2 1.9-0.4 3.7-0.6 5.6 0 1-0.1 2-0.2 3.1 0 0.3 0 0.3-0.2 2.3h-2v7c-4.2-0.8-6.4-1.3-9.2-4.6-3.6-6.9-5.1-11.8-5.1-19.6v-2.2c0-3.7 0.3-6.5 2.3-9.6h2c0.3-1 0.7-2 1-3 4.3-3.9 7.5-4.4 13-3z" fill="#67502D"/>
  <path transform="translate(44,180)" d="m0 0h2v2c2.6 0.3 5.3 0.7 8 1-0.1 1.4-0.3 2.8-0.4 4.2l-0.3 2.4c-0.3 2.2-0.7 4.3-1.3 6.4h-7c1.3 2.5 2.5 2.9 5 4-0.7 1.3-1.3 2.6-2 4h-2v3c1.3 0.3 2.6 0.7 4 1-0.1 2.8-0.1 2.8-1 6-2.3 1.5-4.4 2.1-7 3 0.9-0.1 1.8-0.2 2.7-0.3 1.2-0.1 2.3-0.2 3.5-0.3 0.6 0 0.6 0 3.6-0.3 2.7-0.1 4.6 0 7.2 0.9-14.2 6.3-14.2 6.3-21 4-0.3-2.3-0.7-4.6-1-7-0.8-0.1-1.6-0.3-2.4-0.4-2.6-0.6-2.6-0.6-3.6-1.6-0.5-5.4-0.5-5.4 1.5-7.9 0.5-0.3 1-0.7 1.5-1.1-1.3-0.7-2.6-1.3-4-2 0.3-2 0.7-4 1-6 1.1-0.3 2.1-0.5 3.2-0.8 1.4-0.3 2.8-0.7 4.2-1 0.7-0.2 1.4-0.3 2.1-0.5 5.3-1.4 5.3-1.4 7.5-4.7-0.7-0.4-1.3-0.8-2-1.2-2-1.8-2-1.8-2.2-4.5 0-0.8 0.1-1.5 0.2-2.3z" fill="#6A4917"/>
  <path transform="translate(137,200)" d="m0 0c-2.7 2.3-4.6 3.9-8 5v2c-0.4 0-0.4 0-2.2-0.2-2.8 0.2-2.8 0.2-5 2.1-3.9 2.9-8 3.7-12.8 4.1-1-0.3-2-0.7-3-1-2.2 0.9-2.2 0.9-4 2-0.2-0.3-0.2-0.3-1-2-0.6 0.3-1.2 0.7-1.8 1-2.2 1-2.2 1-5.2 1v2c-2.6 0.1-5.2 0.1-7.8 0.1-0.7 0-1.4 0.1-2.2 0.1-3.8 0-6.7 0-10-2.2 0.3 1 0.7 2 1 3h-3c-1.7 0.3-3.3 0.6-5 1v3c-3.9 1.8-7.3 2.4-11.5 2.7-1.1 0.1-2.2 0.2-3.3 0.2-3 0.1-5.4-0.2-8.2-0.9 1-2 1-2 4.3-3.3 1.4-0.4 2.8-0.8 4.1-1.3 7.4-2.3 7.4-2.3 9.6-3.4 0.7-2 1.4-4 2-6 1.3 0.3 2.6 0.7 4 1v4c1-0.3 2-0.7 3-1 0.3-0.7 0.7-1.3 1-2h3v-2h1.8c6.7 0.1 13.2-0.3 19.8-1 1-0.1 2-0.2 3.1-0.3 2.4-0.2 4.9-0.5 7.3-0.7 0.3-1 0.7-2 1-3h2v2c2.6-0.6 5.1-1.2 7.7-1.9 0.7-0.1 1.4-0.3 2.2-0.5 3.1-0.8 6-1.5 8.9-2.7 2.8-1.1 5.2-1 8.2-0.9z" fill="#B17C2B"/>
  <path transform="translate(33,264)" d="m0 0h3c1.5 2.6 2 3.9 2 7 1.3 0.1 2.5 0.2 3.8 0.3 2.5 0.2 3.9 0.5 5.9 2 1.6 2.1 1.8 3.5 1.9 6.2 0.1 0.9 0.2 1.8 0.2 2.7 0.1 0.9 0.1 1.8 0.2 2.8 0.2 1.9 0.3 3.8 0.5 5.6 0.1 0.9 0.2 1.8 0.2 2.8 0.4 3.5 0.8 7.1 1.3 10.6h4c1 3 1 3 0.1 5.2-0.4 0.6-0.7 1.2-1.1 1.8h2c0.3 3 0.7 5.9 1 9 0.5 0.2 0.5 0.2 3 1v5c0.5 0.2 0.5 0.2 3 1 1.1 2.5 1.1 2.5 2.1 5.5 0.6 1.9 1.2 3.7 1.9 5.5 0.3 0.2 0.3 0.2 2 1v8h-2c-1.7-2.3-3.4-4.7-4.9-7.1-0.5-0.7-0.9-1.4-1.4-2-2.5-3.9-4.7-7.8-6.7-11.9-0.7-1-1.3-2-2-3-0.4-2-0.7-4-1-6h-2l-0.6-3.6c-0.3-1.5-0.6-3.1-0.8-4.6-0.2-0.8-0.3-1.6-0.4-2.4-0.2-0.8-0.3-1.5-0.4-2.3-0.2-0.7-0.3-1.4-0.4-2.1-0.4-2-0.4-2-0.9-4-0.5-2.1-0.6-3.9-0.6-6v-2.3-2.3-2.4c0-5.7 0-5.7 1.1-8-0.3 0.1-0.3 0.1-1.8 0.7-0.7 0.1-1.5 0.2-2.2 0.3-1.6-1.3-1.6-1.3-3-3-1-0.7-2-1.3-3-2v-3c-1-0.3-2-0.7-3-1-0.3-1.6-0.7-3.3-1-5z" fill="#BB9148"/>
  <path transform="translate(19,192)" d="m0 0c0.7 0.3 1.3 0.7 2 1 1.3-0.3 2.7-0.7 4-1h5c0 0.6 0.1 1.3 0.1 1.9 0 0.4 0 0.4 0.2 2.5 0.1 0.8 0.1 1.6 0.2 2.4 0.5 2.2 0.5 2.2 3.5 4.2-1 3-1 3-3 4-0.3 1-0.7 2-1 3-3.1 1.2-3.1 1.2-6 2 0.3-1.3 0.7-2.6 1-4-0.7 0.3-1.3 0.7-2 1 0.3 2.3 0.7 4.6 1 7h-6c-1.1 1.9-1.1 1.9-2 4 0.3 0.7 0.7 1.3 1 2 0 2.5-0.1 5-0.2 7.5 0.2 2.7 0.9 4.1 2.2 6.5 0.4 1.6 0.8 3.3 1.1 4.9 0.1 0.9 0.3 1.7 0.4 2.6 0.3 1.7 0.7 3.4 1 5.1 0.5 2.4 0.5 2.4 2.1 5.6 0.5 0.9 0.9 1.8 1.4 2.8-0.2 0.3-0.2 0.3-1 2-0.7-1.6-1.3-3.3-2-5h-2c-1.1-3.1-2.3-6.2-3.4-9.4-0.3-0.8-0.6-1.7-0.9-2.6-1.9-5.2-3.3-10.3-4.3-15.7-0.6-3.5-1.5-6.9-2.4-10.3 2 0.7 4 1.3 6 2v-7h2v-2.2c-0.1-5.4 0-10.5 1-15.8l1-1z" fill="#CDAC74"/>
  <path transform="translate(130,346)" d="m0 0c3.5 3.2 6.6 6.8 9 11v3c0.3-0.1 0.3-0.1 1.8-0.7 2.2-0.3 2.2-0.3 3.8 0.8 1.8 2.5 2.6 5 3.4 7.9h10c0.1-1.1 0.2-2.3 0.4-3.4l0.6-3.6c0.7-0.3 1.3-0.7 2-1 1.1 4.3 1.1 8.4 1.1 12.8 0 0.7 0 1.4-0.1 2.1v5.1h-2.3c-6 0.1-8.7 2.9-12.7 7h-2c-0.7 1.3-1.3 2.6-2 4h-7c0-2.2 0-2.2 1-5 2.5-2 5.2-3.5 8-5-0.3-7.4-3-12.1-6.9-18.2-1.1-1.8-2.2-3.6-3.3-5.3-0.5-0.8-1-1.5-1.5-2.3-3.3-5.5-3.3-5.5-3.3-9.2z" fill="#875519"/>
  <path transform="translate(197,248)" d="m0 0h3c0.2 12.7-6.2 20.5-14.6 29.4-0.8 0.9-1.6 1.7-2.4 2.6-0.3 0.3-0.3 0.3-1.8 1.6-6 5.9-6.5 11.4-7 19.6-0.2 2.6-0.4 5.2-0.6 7.7-0.1 1.4-0.2 2.7-0.3 4-0.5 6.7-1.2 13.3-1.9 19.9-0.1 1.1-0.2 2.3-0.3 3.6-0.6 6.3-1.6 12.4-3.1 18.6h-1c0.4-15.5 1.2-30.8 2.5-46.2 0-0.4 0-0.4 0.2-2.4 0.6-7.2 1.2-14.3 2.3-21.4h2c0.2-0.7 0.5-1.4 0.8-2.1 1.4-3.5 3.3-6.6 5.2-9.9h5v-2c0.3-0.3 0.3-0.3 1.9-1.6 2.2-2.5 2.5-3.4 3.1-6.5 0.8-3.8 1.9-4.6 5-6.9 1-2.7 1.5-5.2 2-8z" fill="#D6BA85"/>
  <path transform="translate(80,359)" d="m0 0c0.7 0.3 1.3 0.7 2 1-0.1 3.2-0.1 3.2-1 7-1.7 1.6-3.4 2.7-5.4 3.9-1.6 1.1-1.6 1.1-2.6 4.1-0.5-0.2-1-0.4-1.6-0.6-4.8-0.8-8.5 0.1-12.7 2.5-2.7 2.1-2.7 2.1-4.7 4.1-2.6 0.2-5.2 0.2-7.8 0.2h-2.2c-3.8 0-7.3-0.3-11-1.2v-2c-2.6 0.7-5.3 1.3-8 2 2.8-3.2 4.7-4.5 8.9-5.4 1-0.3 2.1-0.5 3.1-0.8 0.7-0.1 1.3-0.2 1.9-0.3 3.4-0.8 6.9-1.6 10.3-2.3 1.9-0.5 3.8-0.9 5.7-1.3 5.4-1.2 10.7-2.6 15.9-4.2 1.9-0.6 3.8-1.1 5.8-1.6 2.4-1.1 2.4-1.1 3.3-3.2 0-0.6 0.1-1.3 0.1-1.9z" fill="#886D3F"/>
  <path transform="translate(80,123)" d="m0 0c2.4 0.2 2.4 0.2 5 1 1.3 2.1 1.3 2.1 2 4h3c4 4.3 4 4.3 4 7h5c0.3 1.3 0.7 2.6 1 4 1.7 0.3 3.3 0.7 5 1 0.2 0.5 0.2 0.5 1 3 0.7 0.6 1.3 1.2 2 1.9 2.3 2.4 2.6 3.9 3 7.1h2c-0.5 4.3-1.7 6.3-4.8 9.2-0.6 0.7-1.3 1.4-2 2.1-2.5 1.9-4.2 2.2-7.2 2.7-1.7 1-3.3 2-5 3-0.7 0.2-1.4 0.3-2.1 0.5-2.4 0.6-3.2 1.7-4.9 3.5-4.4 3.2-9.1 5.7-14 8-0.2-0.5-0.2-0.5-1-3 0.9-0.6 1.8-1.2 2.8-1.8 3.2-2.2 3.2-2.2 5.4-4.4l1.8-1.8h2v-2c0.8-0.2 0.8-0.2 5-1 0.3-1 0.7-2 1-3 3.8-2.6 6.1-3.9 10.7-4.4 3.3-0.6 3.3-0.6 5.7-3.2 0.6-0.8 1.1-1.6 1.6-2.4-0.3-0.6-0.6-1.1-0.9-1.7-0.3-0.7-0.7-1.4-1.1-2.2-0.4-0.7-0.7-1.4-1.1-2.2-0.9-1.9-0.9-1.9-0.9-3.9-0.6-0.1-1.2-0.2-1.8-0.2-2.8-1-3.7-2.3-5.2-4.8v-2c-2.6-0.3-5.3-0.7-8-1v-3h-2c-1.6-1.4-1.6-1.4-3-3v-2c-0.8-0.3-0.8-0.3-5-2 0.3-1 0.7-2 1-3z" fill="#E9BE61"/>
  <path transform="translate(35.176 378.98)" d="m0 0c4.1 1.5 8.2 1.5 12.6 1.7 5 0.2 5 0.2 7.2 1.3v2c2 0.3 4 0.7 6 1v2h4c0.4-0.6 0.7-1.3 1-2 2 0.3 4 0.7 6 1v2c-15.7 2.3-15.7 2.3-23 2v2c-2.9-0.3-2.9-0.3-6-1-0.6-1-1.3-2-2-3-4.2-1.5-6.9-0.6-11 1v1h-5c-0.3 0.7-0.6 1.3-1 2-1.7-3.4-1.6-7.2-1-11 3.7-3.4 7.6-4.1 12.2-2z" fill="#4B370F"/>
  <path transform="translate(100.29 383.9)" d="m0 0h2.8c0.9 0 1.8 0.1 2.8 0.1h2.1c-0.3 1-0.6 2-1 3-13.2 5.5-29.8 5.1-43.9 6.1-0.6 0.1-0.6 0.1-3.7 0.3-9.1 0.6-18.3 1-27.4 0.2-0.9-0.1-1.8-0.2-2.8-0.3-2.2-0.3-2.2-0.3-4.2-1.3v-2c9.8-4.2 9.8-4.2 14.5-3.4 2.3 1.3 3.7 2.5 5.5 4.4 2.2 0.7 2.2 0.7 4 1v-2c23.8-3.3 23.8-3.3 34.2-3 6.1 0 11.7-2.9 17.1-3.1z" fill="#342511"/>
  <path transform="translate(103,296)" d="m0 0h13c0 1.1-0.1 2.2-0.1 3.4 0.1 3.6 0.1 3.6 2.1 5.6 1 0.7 2 1.3 3 2v2h-2c0.2 0.8 0.4 1.6 0.7 2.4 1.5 5.7 2.7 10.7 2.3 16.6h5c0.3 1 0.7 2 1 3 0.3 0.9 0.7 1.8 1 2.8 1.1 3.4 1.6 6.7 2 10.2h5c1.1 5.8 1.1 5.8 0 8h2c-0.3 1-0.7 2-1 3-2.1-2.6-4.1-5.2-6-8-0.3 0.2-0.3 0.2-2 1-1.4-3-2.9-6-4.3-9.1-0.2-0.4-0.2-0.4-1.2-2.5-4-8.3-7.2-16.5-9.7-25.3-0.3-1-0.5-2-0.8-3-0.7-2.4-1.3-4.7-2-7.1-3.3-0.3-6.6-0.7-10-1 0.7-1.3 1.3-2.6 2-4z" fill="#B0802D"/>
  <path transform="translate(66,44)" d="m0 0c1.3 0.3 2.6 0.7 4 1-0.7 1.3-1.3 2.6-2 4 0.7 0.3 1.3 0.7 2 1-1.1 0.8-2.2 1.7-3.4 2.5-0.6 0.5-1.2 0.9-1.9 1.4-1.7 1.1-1.7 1.1-3.7 1.1v5c0.7 0.3 1.3 0.7 2 1 1 3.1 1.8 6.2 2.5 9.4 0.1 0.2 0.1 0.2 0.5 1.6 0.7 0.3 1.3 0.7 2 1 0.1 1.6 0.1 3.2 0.1 4.9 0 0.9 0.1 1.8 0.1 2.7-0.2 2.4-0.2 2.4-2.2 4.4-0.7-4.3-1.3-8.6-2-13h-2c-3-5.8-3-5.8-3-8h-2c-1-1.6-2-3.3-3-5-1.3-1.7-2.7-3.3-4-5l-3-6c2.1-2.1 6.6-1.4 9.6-1.6 0.8 0 1.6 0 2.4-0.1l6-0.3c0.3-0.7 0.7-1.3 1-2z" fill="#BE8B38"/>
  <path transform="translate(98,336)" d="m0 0h2c0.2 6.3-0.6 11.9-1.9 18-1.1 5.4-2 11-0.4 16.4 1.8 2.2 3.7 2.6 6.3 3.6 0.7 1 1.3 2 2 3 0.5 0.2 0.5 0.2 3 1v7h-5v-3c-0.7-0.1-1.4-0.1-2.2-0.2-3.8-1.1-5.4-2.7-7.8-5.8-0.8-3.8-0.8-3.8-1-7-0.7 0.2-0.7 0.2-4 1 0.9-7.5 0.9-7.5 1.6-10.8 0.4-2.2 0.4-2.2-0.6-5.2l2-2h3v-3h2v-2.3c0-0.5 0-0.5-0.1-3.1v-3c0.1-2.6 0.1-2.6 1.1-4.6z" fill="#785229"/>
  <path transform="translate(23,159)" d="m0 0c-2.4 11.1-2.4 11.1-4 16-2 1-2 1-5.2 1.2-4.9 1-7.9 2.7-10.8 6.8-1.1 3.6-1.7 7.2-2 11h-1c-0.3-16.7-0.3-16.7 2.4-21.6 1.6-1.4 1.6-1.4 3.6-1.4 0.3-1 0.7-2 1-3 0.9 0 1.9-0.1 2.8-0.1 0.5-0.2 0.5-0.2 3.2-0.9 1.6-2.9 1.6-2.9 3-6 2.6-1.8 3.8-2 7-2z" fill="#D8B263"/>
  <path transform="translate(107,300)" d="m0 0c1.7 0.3 3.3 0.6 5 1 0.2 0.6 0.3 1.2 0.5 1.8 0.7 2.7 1.5 5.4 2.3 8.1 0.2 1 0.5 1.9 0.7 2.8 1.7 6.1 3.8 11.7 6.5 17.3 0.7 1.5 1.4 2.9 2 4.4 0.7 1.5 1.4 2.9 2.1 4.4 0.3 0.7 0.6 1.4 1 2.2 1.8 3.8 3.7 7.4 5.9 11 1.4 2.3 2.7 4.6 4 7-0.3 0.7-0.7 1.3-1 2-3.3-2.8-4.5-4.7-5-9h-2c-0.1-0.3-0.1-0.3-0.9-1.9-1.1-2.1-1.1-2.1-3.1-3.1-0.6-2.3-0.6-2.3-1.1-5.1-0.2-0.9-0.4-1.8-0.5-2.7-0.2-0.8-0.3-1.5-0.4-2.2h-2c-0.3-1.6-0.7-3.3-1-5h-3c0-0.6-0.1-1.2-0.1-1.9 0-0.4 0-0.4-0.2-2.4-0.1-0.8-0.1-1.6-0.2-2.4-0.6-2.7-1.6-3.4-3.5-5.3-0.9-2.6-0.9-2.6-1.6-5.4-0.3-1-0.5-1.9-0.8-2.9l-0.6-2.7c-0.3-1.3-0.7-2.7-1-4h-3v-5l1-1z" fill="#F5EED9"/>
  <path transform="translate(109,380)" d="m0 0c0.7 1.3 1.3 2.6 2 4 2 1 2 1 5.6 1h3.4l1 1c8.2 0.3 8.2 0.3 12-1 0.3 1 0.7 2 1 3-7.5 4-14.7 4.5-23 3-1-0.3-2-0.7-3-1 0.3-3.3 0.7-6.6 1-10z" fill="#F5EED9"/>
  <path transform="translate(58,99)" d="m0 0h1c-0.3 7.7-1.7 14-5 21-1-0.3-2-0.7-3-1-0.3-1-0.7-2-1-3-0.7 1.3-1.3 2.6-2 4h-2c1.8-5.2 4.8-9 8.1-13.3 1.8-2.5 2.9-4.8 3.9-7.7z" fill="#E1C081"/>
  <path transform="translate(97,384)" d="m0 0v2c-8.1 1.8-15.7 2.2-24 2-0.3-0.7-0.7-1.3-1-2 0.3-0.7 0.7-1.3 1-2 7.5-1.4 16.7-2.4 24 0z" fill="#4B370F"/>
  <path transform="translate(100,341)" d="m0 0h2c-0.4 2.3-0.9 4.6-1.5 6.9-1.6 6.6-2.1 13.3-2.5 20.1h3v2c1.3 0.3 2.6 0.7 4 1v3c1.3 0.7 2.6 1.3 4 2v3c-3.4-1.5-5.5-3.3-8-6-0.9-0.7-1.7-1.4-2.6-2.2-2.6-3-2.9-4.4-2.6-8.4 0-0.6 0.1-1.3 0.2-2s0.1-1.4 0.2-2.1c0.6-6 1.9-11.6 3.8-17.3z" fill="#A66A1A"/>
  <path transform="translate(136,362)" d="m0 0c4.4 1.5 5.4 4.4 7.7 8.3 1.8 3.7 2.1 6.6 2.3 10.7-1.4 1-2.9 2.1-4.3 3.1-0.8 0.5-1.6 1.1-2.4 1.7-0.8 0.4-1.5 0.8-2.3 1.2-1-0.3-2-0.7-3-1 4.8-4 4.8-4 7-4v-2h2v-2c-0.7-0.3-1.3-0.7-2-1 0.7-0.3 1.3-0.7 2-1l-2-2c-0.3 0.2-0.3 0.2-2 1 0.1-1.1 0.1-2.1 0.2-3.2-0.2-4-0.7-5-3.2-7.8v-2z" fill="#F5EED9"/>
  <path transform="translate(23,173)" d="m0 0h2c-0.3 2-0.5 4-0.8 6-0.2 2-0.2 2-0.2 5-1.3-0.3-2.6-0.7-4-1-0.7 2-1.3 4-2 6h-2c0.3 1 0.7 2 1 3h-2c-0.4-4.9 0.7-7.7 3-12 0.7-2.9 0.7-2.9 1-5h2v2h2v-4z" fill="#D8B263"/>
  <path transform="translate(30,207)" d="m0 0h1c0.2 1 0.5 1.9 0.8 2.9 0.4 1 0.8 2.1 1.2 3.1 2.1 0.9 2.1 0.9 4 1 0.3 2.3 0.7 4.6 1 7 1 0.2 1 0.2 6 1-3.4 2.1-6.1 2.2-10 2 0-2.6 0.3-4.5 1-7-2-0.7-4-1.3-6-2 0.3-2.6 0.7-5.3 1-8z" fill="#B17C2B"/>
  <path transform="translate(109,322)" d="m0 0c0.7 0.3 1.3 0.7 2 1 0.6 2.1 0.6 2.1 1 4h-4c0.3-1.6 0.7-3.3 1-5z" fill="#FDFFF1"/>
  <path transform="translate(122,343)" d="m0 0h1v6h-1v-6z" fill="#F2FCF7"/>
  <path transform="translate(140,375)" d="m0 0c0.3 0.7 0.7 1.3 1 2-0.7-0.3-1.3-0.7-2-1l1-1z" fill="#F5F8F5"/>
  <path transform="translate(133,384)" d="m0 0 2 1z" fill="#F8FBF3"/>
  <path transform="translate(139,379)" d="m0 0 2 1z" fill="#F6F9F6"/>
  <path transform="translate(110,376)" d="m0 0 2 1z" fill="#F7F7F2"/>
  <path transform="translate(107,372)" d="m0 0 2 1z" fill="#F6F6F6"/>
  <path transform="translate(126,351)" d="m0 0 2 1z" fill="#F2FDFE"/>
 </g>
</svg>
